<svg xmlns="http://www.w3.org/2000/svg" width="92" height="91" viewBox="0 0 92 91" fill="none">
  <mask id="mask0_4680_6947" style="mask-type:alpha" maskUnits="userSpaceOnUse" x="0" y="0" width="92" height="91">
    <circle cx="46" cy="45.5" r="45.5" fill="url(#paint0_linear_4680_6947)"/>
  </mask>
  <g mask="url(#mask0_4680_6947)">
    <circle cx="46" cy="45.5" r="45.5" fill="url(#paint1_linear_4680_6947)"/>
    <path d="M45.4105 45.5635C36.1272 20.2676 40.132 2.96861 44.0001 -2.00022C57.9251 -4.86107 81.6875 -6.13348 66.8342 5.79172C48.2676 20.6982 45.9105 44.5635 45.4105 45.5635Z" fill="white" fill-opacity="0.15"/>
    <path d="M45.4103 45.5631C62.6755 24.8755 79.4443 19.442 85.6815 20.3074C95.1216 30.9364 108.105 50.8791 90.3505 43.9783C68.1578 35.3524 45.9103 45.563 45.4103 45.5631Z" fill="white" fill-opacity="0.15"/>
    <path d="M45.4103 45.5636C71.9589 50.172 84.8292 61.7196 87.1983 67.5538C82.7134 81.0436 71.9341 102.259 69.0333 83.4328C65.4072 59.9004 45.9104 46.0635 45.4103 45.5636Z" fill="white" fill-opacity="0.15"/>
    <path d="M45.4104 45.5635C54.6937 70.8594 50.9157 87.5372 47.0476 92.5061C33.1226 95.3669 9.36017 96.6393 24.2135 84.7141C42.7801 69.8076 44.9104 46.0635 45.4104 45.5635Z" fill="white" fill-opacity="0.15"/>
    <path d="M45.4103 45.5635C28.1451 66.251 11.598 71.0637 5.36088 70.1983C-4.07917 59.5694 -17.0624 39.6267 0.691837 46.5274C22.8846 55.1533 44.9103 45.5635 45.4103 45.5635Z" fill="white" fill-opacity="0.15"/>
    <path d="M45.4104 45.5635C18.8618 40.9552 6.19952 28.7738 3.8304 22.9395C8.31533 9.4497 19.0946 -11.7654 21.9955 7.06054C25.6216 30.593 45.4104 45.0635 45.4104 45.5635Z" fill="white" fill-opacity="0.15"/>
  </g>
  <defs>
    <linearGradient id="paint0_linear_4680_6947" x1="25.6702" y1="-51.8194" x2="114.128" y2="-16.0806" gradientUnits="userSpaceOnUse">
      <stop stop-color="#C28851"/>
      <stop offset="1" stop-color="#B77536"/>
    </linearGradient>
    <linearGradient id="paint1_linear_4680_6947" x1="25.6702" y1="-51.8194" x2="114.128" y2="-16.0806" gradientUnits="userSpaceOnUse">
      <stop stop-color="#C28851"/>
      <stop offset="1" stop-color="#B77536"/>
    </linearGradient>
  </defs>
</svg>