<svg width="28" height="28" viewBox="0 0 28 28" fill="none" xmlns="http://www.w3.org/2000/svg">
<path fill-rule="evenodd" clip-rule="evenodd" d="M25 13.5C25 19.8513 19.8513 25 13.5 25C12.1775 25 10.9072 24.7768 9.72461 24.3659C9.69419 24.3812 9.66279 24.3954 9.63043 24.4085L5.93327 25.9073C5.0775 26.2543 4.15549 25.5803 4.22631 24.6596L4.52608 20.7626C4.5277 20.7416 4.52981 20.7207 4.53239 20.7001C2.94807 18.7294 2 16.2254 2 13.5C2 7.14873 7.14873 2 13.5 2C19.8513 2 25 7.14873 25 13.5ZM8.4127 17.9992C8.15342 17.5195 8.53836 17 9.08364 17H17.9164C18.4616 17 18.8466 17.5195 18.5873 17.9992C17.8562 19.3519 16.2673 21 13.5 21C10.7327 21 9.14384 19.3519 8.4127 17.9992Z" fill="url(#paint0_linear_1410_6896)"/>
<defs>
<linearGradient id="paint0_linear_1410_6896" x1="24.7966" y1="23.931" x2="6.83679" y2="2.90445" gradientUnits="userSpaceOnUse">
<stop stopColor="#F0A64E"/>
<stop offset="1" stopColor="#FFCA8B"/>
</linearGradient>
</defs>
</svg>
