<svg version="1.1" id="Layer_1" xmlns="http://www.w3.org/2000/svg" xmlns:xlink="http://www.w3.org/1999/xlink" x="0px" y="0px"
	 width="100%" viewBox="0 0 225 225" enable-background="new 0 0 225 225" xml:space="preserve">
<path fill="#E9EEF1" opacity="1.000000" stroke="none" 
	d="
M115.000000,226.000000 
	C76.666672,226.000000 38.833340,226.000000 1.000005,226.000000 
	C1.000003,151.000000 1.000003,76.000015 1.000002,1.000015 
	C75.999992,1.000010 150.999985,1.000010 225.999969,1.000005 
	C225.999985,75.999985 225.999985,150.999969 226.000000,225.999969 
	C189.166672,226.000000 152.333328,226.000000 115.000000,226.000000 
M97.500580,81.037445 
	C92.838699,81.037483 88.176796,81.029594 83.514931,81.039345 
	C75.779762,81.055527 73.199013,83.450623 73.162811,91.033363 
	C73.091286,106.017654 73.091385,121.002777 73.163139,135.987061 
	C73.198601,143.391037 75.792427,145.921112 83.067970,145.927505 
	C103.713455,145.945648 124.358971,145.946365 145.004456,145.927017 
	C152.247208,145.920242 154.817322,143.376923 154.851151,135.931488 
	C154.919220,120.947159 154.922867,105.962059 154.850006,90.977783 
	C154.813919,83.558273 152.236099,81.052002 144.952682,81.043327 
	C129.468567,81.024872 113.984436,81.037605 97.500580,81.037445 
z"/>
<path fill="#BDC1C4" opacity="1.000000" stroke="none" 
	d="
M98.000443,81.037498 
	C113.984436,81.037605 129.468567,81.024872 144.952682,81.043327 
	C152.236099,81.052002 154.813919,83.558273 154.850006,90.977783 
	C154.922867,105.962059 154.919220,120.947159 154.851151,135.931488 
	C154.817322,143.376923 152.247208,145.920242 145.004456,145.927017 
	C124.358971,145.946365 103.713455,145.945648 83.067970,145.927505 
	C75.792427,145.921112 73.198601,143.391037 73.163139,135.987061 
	C73.091385,121.002777 73.091286,106.017654 73.162811,91.033363 
	C73.199013,83.450623 75.779762,81.055527 83.514931,81.039345 
	C88.176796,81.029594 92.838699,81.037483 98.000443,81.037498 
M79.047363,119.499405 
	C79.047646,124.657356 79.179657,129.819839 79.002464,134.971695 
	C78.881866,138.478119 79.933517,140.115494 83.780380,140.091446 
	C103.912231,139.965622 124.045479,139.990036 144.177750,140.075287 
	C147.479492,140.089264 149.041550,139.114807 149.013657,135.536514 
	C148.898209,120.729118 148.887939,105.919563 149.025986,91.112541 
	C149.057190,87.765831 147.802582,86.866768 144.633392,86.883202 
	C124.501289,86.987556 104.367905,87.008171 84.236160,86.872963 
	C80.369766,86.846992 78.890869,88.095978 78.983536,92.045937 
	C79.190292,100.859505 79.047752,109.681282 79.047363,119.499405 
z"/>
<path fill="#E8EDF0" opacity="1.000000" stroke="none" 
	d="
M79.047440,118.999557 
	C79.047752,109.681282 79.190292,100.859505 78.983536,92.045937 
	C78.890869,88.095978 80.369766,86.846992 84.236160,86.872963 
	C104.367905,87.008171 124.501289,86.987556 144.633392,86.883202 
	C147.802582,86.866768 149.057190,87.765831 149.025986,91.112541 
	C148.887939,105.919563 148.898209,120.729118 149.013657,135.536514 
	C149.041550,139.114807 147.479492,140.089264 144.177750,140.075287 
	C124.045479,139.990036 103.912231,139.965622 83.780380,140.091446 
	C79.933517,140.115494 78.881866,138.478119 79.002464,134.971695 
	C79.179657,129.819839 79.047646,124.657356 79.047440,118.999557 
M125.066925,99.642532 
	C120.342087,104.324997 115.607109,108.997284 110.894966,113.692490 
	C104.995064,119.571198 105.006226,119.575531 98.631256,114.429588 
	C98.411598,114.252289 98.000870,114.311691 96.732231,114.110840 
	C93.476166,117.567383 89.439323,121.147659 86.372734,125.423744 
	C84.967842,127.382736 85.099327,130.747162 85.363403,133.391388 
	C85.431595,134.074249 88.629471,134.877686 90.394936,134.890274 
	C106.528259,135.005157 122.663094,135.005127 138.796310,134.883331 
	C140.399216,134.871231 143.353455,133.886154 143.380890,133.253036 
	C143.630005,127.503235 145.397812,120.475983 142.787720,116.254692 
	C138.687805,109.623924 131.535736,104.880341 125.066925,99.642532 
M85.427681,103.574738 
	C86.323921,104.550842 87.096642,106.178719 88.140381,106.376534 
	C90.884422,106.896576 94.317177,107.818481 96.403198,106.655998 
	C98.550919,105.459106 100.785637,101.823685 100.509239,99.556808 
	C100.194481,96.975311 97.631157,93.742874 95.184784,92.532982 
	C89.550789,89.746605 84.659981,95.011505 85.427681,103.574738 
z"/>
<path fill="#BBBFC2" opacity="1.000000" stroke="none" 
	d="
M125.371529,99.490067 
	C131.535736,104.880341 138.687805,109.623924 142.787720,116.254692 
	C145.397812,120.475983 143.630005,127.503235 143.380890,133.253036 
	C143.353455,133.886154 140.399216,134.871231 138.796310,134.883331 
	C122.663094,135.005127 106.528259,135.005157 90.394936,134.890274 
	C88.629471,134.877686 85.431595,134.074249 85.363403,133.391388 
	C85.099327,130.747162 84.967842,127.382736 86.372734,125.423744 
	C89.439323,121.147659 93.476166,117.567383 96.732231,114.110840 
	C98.000870,114.311691 98.411598,114.252289 98.631256,114.429588 
	C105.006226,119.575531 104.995064,119.571198 110.894966,113.692490 
	C115.607109,108.997284 120.342087,104.324997 125.371529,99.490067 
z"/>
<path fill="#BBBFC2" opacity="1.000000" stroke="none" 
	d="
M85.282852,103.198380 
	C84.659981,95.011505 89.550789,89.746605 95.184784,92.532982 
	C97.631157,93.742874 100.194481,96.975311 100.509239,99.556808 
	C100.785637,101.823685 98.550919,105.459106 96.403198,106.655998 
	C94.317177,107.818481 90.884422,106.896576 88.140381,106.376534 
	C87.096642,106.178719 86.323921,104.550842 85.282852,103.198380 
z"/>
</svg>