<svg width="13" height="12" viewBox="0 0 13 12" fill="none" xmlns="http://www.w3.org/2000/svg">
<path id="Union" fill-rule="evenodd" clip-rule="evenodd" d="M7.74984 1.5C7.74984 0.671573 7.07827 0 6.24984 0C5.42142 0 4.74984 0.671573 4.74984 1.5V3.325C4.74984 4.02348 4.26773 4.62953 3.58713 4.78659L1.41255 5.28841C0.605343 5.47469 0.101978 6.28008 0.288257 7.08729C0.474538 7.8945 1.27992 8.39787 2.08713 8.21159L2.91255 8.02111C3.85248 7.8042 4.74984 8.51806 4.74984 9.48269V10.5C4.74984 11.3284 5.42142 12 6.24984 12C7.07827 12 7.74984 11.3284 7.74984 10.5V8.09808C7.74984 7.39959 8.23196 6.79355 8.91255 6.63649L11.8371 5.96159C12.6443 5.77531 13.1477 4.96992 12.9614 4.16271C12.7752 3.3555 11.9698 2.85213 11.1626 3.03841L9.58713 3.40197C8.64721 3.61888 7.74984 2.90501 7.74984 1.94038V1.5Z" fill="url(#paint0_linear_5225_6612)"/>
<defs>
<linearGradient id="paint0_linear_5225_6612" x1="12.9999" y1="10.375" x2="2.58067" y2="9.47366" gradientUnits="userSpaceOnUse">
<stop stop-color="#FDCE48"/>
<stop offset="0.31" stop-color="#EFA732"/>
<stop offset="1" stop-color="#E69B33"/>
</linearGradient>
</defs>
</svg>
