<svg width="140" height="140" viewBox="0 0 140 140" fill="none" xmlns="http://www.w3.org/2000/svg">
<mask id="mask0_4828_4578" style="mask-type:alpha" maskUnits="userSpaceOnUse" x="0" y="0" width="140" height="140">
<circle cx="70" cy="70" r="70" fill="url(#paint0_radial_4828_4578)"/>
</mask>
<g mask="url(#mask0_4828_4578)">
<path d="M11.0667 -38.2227L11.0666 183.337" stroke="#373737" stroke-width="0.371124"/>
<path d="M25.9116 -38.2227L25.9116 183.337" stroke="#373737" stroke-width="0.371124"/>
<path d="M40.7566 -38.2227L40.7566 183.337" stroke="#373737" stroke-width="0.371124"/>
<path d="M55.6014 -38.2227L55.6014 183.337" stroke="#373737" stroke-width="0.371124"/>
<path d="M70.4464 -38.2227L70.4464 183.337" stroke="#373737" stroke-width="0.371124"/>
<path d="M85.2914 -38.2227L85.2914 183.337" stroke="#373737" stroke-width="0.371124"/>
<path d="M100.136 -38.2227L100.136 183.337" stroke="#373737" stroke-width="0.371124"/>
<path d="M114.981 -38.2227L114.981 183.337" stroke="#373737" stroke-width="0.371124"/>
<path d="M129.826 -38.2227L129.826 183.337" stroke="#373737" stroke-width="0.371124"/>
<path d="M197.036 12.3799L-54.2132 12.3799" stroke="#373737" stroke-width="0.371124"/>
<path d="M197.036 27.2246L-54.2132 27.2246" stroke="#373737" stroke-width="0.371124"/>
<path d="M197.036 42.0693L-54.2132 42.0693" stroke="#373737" stroke-width="0.371124"/>
<path d="M197.036 56.915L-54.2132 56.915" stroke="#373737" stroke-width="0.371124"/>
<path d="M197.036 71.7598L-54.2132 71.7597" stroke="#373737" stroke-width="0.371124"/>
<path d="M197.036 86.6045L-54.2132 86.6045" stroke="#373737" stroke-width="0.371124"/>
<path d="M197.036 101.449L-54.2132 101.449" stroke="#373737" stroke-width="0.371124"/>
<path d="M197.036 116.295L-54.2132 116.295" stroke="#373737" stroke-width="0.371124"/>
<path d="M197.036 131.14L-54.2132 131.14" stroke="#373737" stroke-width="0.371124"/>
<path d="M40.6698 39.2141C40.771 38.8979 41.2185 38.8979 41.3197 39.2141L41.9343 41.1334C41.9679 41.2384 42.0502 41.3207 42.1552 41.3543L44.0745 41.9689C44.3907 42.0701 44.3907 42.5175 44.0745 42.6188L42.1552 43.2333C42.0502 43.267 41.9679 43.3493 41.9343 43.4543L41.3197 45.3735C41.2185 45.6898 40.771 45.6898 40.6698 45.3735L40.0552 43.4543C40.0216 43.3493 39.9393 43.267 39.8343 43.2333L37.915 42.6188C37.5988 42.5175 37.5988 42.0701 37.915 41.9689L39.8343 41.3543C39.9393 41.3207 40.0216 41.2384 40.0552 41.1334L40.6698 39.2141Z" fill="#373737"/>
<path d="M115.01 69.1145C115.111 68.7983 115.558 68.7983 115.66 69.1145L116.274 71.0338C116.308 71.1388 116.39 71.2211 116.495 71.2547L118.414 71.8693C118.731 71.9705 118.731 72.4179 118.414 72.5192L116.495 73.1337C116.39 73.1674 116.308 73.2496 116.274 73.3546L115.66 75.2739C115.558 75.5902 115.111 75.5902 115.01 75.2739L114.395 73.3546C114.362 73.2496 114.279 73.1674 114.174 73.1337L112.255 72.5192C111.939 72.4179 111.939 71.9705 112.255 71.8693L114.174 71.2547C114.279 71.2211 114.362 71.1388 114.395 71.0338L115.01 69.1145Z" fill="#373737"/>
<path d="M24.6794 84.2432C24.7685 83.9648 25.1625 83.9648 25.2516 84.2432L25.7928 85.9332C25.8224 86.0257 25.8948 86.0981 25.9873 86.1277L27.6773 86.6689C27.9557 86.758 27.9557 87.152 27.6773 87.2411L25.9873 87.7823C25.8948 87.8119 25.8224 87.8843 25.7928 87.9768L25.2516 89.6668C25.1625 89.9452 24.7685 89.9452 24.6794 89.6668L24.1382 87.9768C24.1086 87.8843 24.0362 87.8119 23.9437 87.7823L22.2537 87.2411C21.9753 87.152 21.9753 86.758 22.2537 86.6689L23.9437 86.1277C24.0362 86.0981 24.1086 86.0257 24.1382 85.9332L24.6794 84.2432Z" fill="#373737"/>
<path d="M114.691 99.0683C114.757 98.8602 115.052 98.8602 115.118 99.0683L115.523 100.331C115.545 100.4 115.599 100.455 115.668 100.477L116.931 100.881C117.139 100.948 117.139 101.242 116.931 101.309L115.668 101.713C115.599 101.735 115.545 101.79 115.523 101.859L115.118 103.122C115.052 103.33 114.757 103.33 114.691 103.122L114.286 101.859C114.264 101.79 114.21 101.735 114.141 101.713L112.878 101.309C112.67 101.242 112.67 100.948 112.878 100.881L114.141 100.477C114.21 100.455 114.264 100.4 114.286 100.331L114.691 99.0683Z" fill="#373737"/>
<path d="M55.6806 114.066C55.7472 113.858 56.0417 113.858 56.1083 114.066L56.5127 115.329C56.5348 115.398 56.589 115.453 56.6581 115.475L57.9212 115.879C58.1293 115.946 58.1293 116.24 57.9212 116.307L56.6581 116.711C56.589 116.733 56.5348 116.788 56.5127 116.857L56.1083 118.12C56.0417 118.328 55.7472 118.328 55.6806 118.12L55.2762 116.857C55.254 116.788 55.1999 116.733 55.1308 116.711L53.8677 116.307C53.6596 116.24 53.6596 115.946 53.8677 115.879L55.1308 115.475C55.1999 115.453 55.254 115.398 55.2762 115.329L55.6806 114.066Z" fill="#373737"/>
<path d="M99.8807 40.1679C99.9473 39.9598 100.242 39.9598 100.308 40.1679L100.713 41.4309C100.735 41.5 100.789 41.5542 100.858 41.5763L102.121 41.9808C102.329 42.0474 102.329 42.3418 102.121 42.4085L100.858 42.8129C100.789 42.835 100.735 42.8892 100.713 42.9583L100.308 44.2213C100.242 44.4294 99.9473 44.4294 99.8807 44.2213L99.4762 42.9583C99.4541 42.8892 99.3999 42.835 99.3308 42.8129L98.0678 42.4085C97.8597 42.3418 97.8597 42.0474 98.0678 41.9808L99.3308 41.5763C99.3999 41.5542 99.4541 41.5 99.4762 41.4309L99.8807 40.1679Z" fill="#373737"/>
<g clip-path="url(#clip0_4828_4578)">
<path d="M88.0809 58.3733L95.0734 82.5685C95.1518 82.8328 95.1774 83.1101 95.1487 83.3844C95.1199 83.6587 95.0375 83.9246 94.9059 84.167C94.7744 84.4094 94.5965 84.6236 94.3822 84.7972C94.1679 84.9708 93.9216 85.1006 93.6572 85.179L61.3499 94.5159C60.819 94.6693 60.2488 94.6057 59.7647 94.339C59.2806 94.0723 58.9222 93.6244 58.7682 93.0936L48.2641 56.7474C47.951 55.664 48.5875 54.4855 49.6991 54.1642L69.8775 48.3326L73.3758 60.4372C73.5304 60.9723 73.8913 61.424 74.3789 61.693C74.8666 61.962 75.4412 62.0262 75.9763 61.8716L88.0809 58.3733ZM86.9148 54.3384L76.8276 57.2537L73.9141 47.1725L86.9148 54.3384ZM60.6881 61.918L61.8542 65.9529L67.9065 64.2038L66.7404 60.1689L60.6881 61.918ZM63.0203 69.9878L64.1864 74.0227L80.3259 69.3583L79.1598 65.3234L63.0203 69.9878ZM65.3525 78.0576L66.5186 82.0924L82.6581 77.4281L81.492 73.3932L65.3525 78.0576Z" fill="#777777"/>
</g>
</g>
<defs>
<radialGradient id="paint0_radial_4828_4578" cx="0" cy="0" r="1" gradientUnits="userSpaceOnUse" gradientTransform="translate(70 70) rotate(90) scale(65.1163)">
<stop offset="0.479051" stop-color="#D9D9D9" stop-opacity="0.4"/>
<stop offset="1" stop-color="#D9D9D9" stop-opacity="0"/>
</radialGradient>
<clipPath id="clip0_4828_4578">
<rect width="56" height="56" fill="white" transform="translate(37 50.5488) rotate(-16.1195)"/>
</clipPath>
</defs>
</svg>