<?xml version="1.0" standalone="no"?>
<!DOCTYPE svg PUBLIC "-//W3C//DTD SVG 20010904//EN"
 "http://www.w3.org/TR/2001/REC-SVG-20010904/DTD/svg10.dtd">
<svg version="1.0" xmlns="http://www.w3.org/2000/svg"
 width="400.000000pt" height="400.000000pt" viewBox="0 0 400.000000 400.000000"
 preserveAspectRatio="xMidYMid meet">
<metadata>
Created by potrace 1.14, written by Peter Selinger 2001-2017
</metadata>
<g transform="translate(0.000000,400.000000) scale(0.100000,-0.100000)"
fill="#000000" stroke="none">
<path d="M1770 3994 c-176 -22 -502 -108 -546 -144 -6 -6 -14 -7 -17 -3 -4 3
-7 1 -7 -6 0 -7 -4 -10 -9 -6 -5 3 -17 -2 -25 -11 -9 -8 -16 -13 -16 -9 0 8
-63 -27 -72 -40 -4 -5 -8 -6 -8 -1 0 5 -9 1 -20 -9 -11 -10 -20 -15 -20 -11 0
4 -13 -2 -29 -13 -16 -12 -31 -21 -34 -21 -10 0 -146 -95 -227 -159 -111 -88
-281 -268 -365 -386 -38 -55 -69 -103 -67 -107 1 -4 -2 -8 -8 -8 -5 0 -10 -4
-10 -10 0 -5 -8 -19 -18 -30 -9 -11 -16 -23 -14 -26 1 -2 -4 -12 -13 -20 -8
-9 -13 -20 -10 -25 4 -5 3 -9 -2 -9 -8 0 -36 -54 -33 -66 1 -4 -2 -10 -7 -13
-16 -12 -44 -71 -38 -81 3 -6 2 -10 -4 -10 -6 0 -14 -12 -17 -27 -4 -16 -10
-32 -13 -38 -23 -34 -85 -283 -105 -417 -21 -141 -21 -435 0 -577 18 -123 81
-374 95 -379 5 -2 6 -8 3 -13 -3 -6 -1 -16 6 -23 6 -8 13 -24 15 -37 6 -28 66
-152 78 -160 5 -3 9 -10 9 -15 0 -17 37 -91 52 -103 9 -8 13 -17 10 -22 -3 -5
0 -9 5 -9 6 0 11 -5 11 -11 0 -6 10 -25 23 -42 13 -18 50 -68 82 -112 78 -107
289 -316 399 -396 49 -35 92 -62 94 -61 3 2 9 -3 14 -12 5 -9 16 -16 23 -16 8
0 15 -5 15 -11 0 -5 4 -7 10 -4 5 3 10 1 10 -4 0 -6 7 -11 15 -11 8 0 15 -4
15 -9 0 -8 37 -24 53 -22 4 1 7 -3 7 -8 0 -8 35 -22 43 -18 2 1 11 -6 21 -16
10 -9 22 -15 27 -12 5 4 9 1 9 -5 0 -6 4 -8 10 -5 5 3 10 2 10 -4 0 -6 12 -14
28 -17 15 -4 32 -10 37 -14 6 -5 19 -10 30 -12 11 -1 22 -6 25 -9 8 -9 256
-77 355 -96 73 -15 140 -18 350 -18 244 1 268 2 385 28 69 14 163 39 210 54
47 15 87 27 90 28 29 6 80 28 80 35 0 4 6 7 13 7 20 -1 77 24 77 35 0 5 4 7 9
3 5 -3 17 3 27 12 10 10 18 17 18 15 2 -8 96 40 96 49 0 6 4 8 8 5 5 -3 19 4
30 15 12 11 22 18 22 15 0 -5 85 51 111 72 8 7 48 38 89 71 101 79 261 247
341 356 35 49 62 89 59 89 -2 1 6 12 18 26 11 14 22 30 24 35 1 6 9 18 18 28
8 10 14 20 12 23 -1 2 4 12 13 20 8 9 13 20 10 25 -4 5 -2 9 4 9 9 0 21 25 21
43 -1 4 6 15 15 23 8 9 13 20 10 25 -4 5 -1 9 5 9 6 0 8 5 5 10 -3 6 -2 10 4
10 5 0 13 10 16 23 4 12 15 41 26 65 11 23 20 52 22 65 1 12 5 24 8 27 12 9
68 250 84 355 20 135 20 435 -1 574 -18 126 -80 375 -94 379 -6 2 -7 8 -4 13
3 6 1 16 -6 23 -6 8 -13 24 -15 36 -6 30 -86 193 -99 202 -6 4 -8 8 -4 8 4 0
-1 15 -12 33 -11 17 -24 42 -30 55 -5 12 -14 22 -20 22 -6 0 -9 4 -6 8 3 5 -4
18 -14 30 -11 12 -20 23 -20 26 0 3 -28 43 -61 88 -115 154 -378 397 -509 469
-14 8 -29 20 -33 27 -5 7 -12 10 -18 7 -5 -4 -9 -1 -9 4 0 6 -7 11 -15 11 -8
0 -15 4 -15 9 0 8 -37 24 -52 22 -5 -1 -8 3 -8 8 0 8 -37 24 -52 22 -5 -1 -8
3 -8 8 0 9 -58 35 -72 32 -5 0 -8 3 -8 8 0 5 -12 12 -27 16 -16 3 -41 13 -58
20 -49 23 -228 73 -343 96 -88 18 -148 22 -337 24 -126 2 -246 1 -265 -1z"/>
</g>
</svg>
