<svg xmlns="http://www.w3.org/2000/svg" width="130" height="85" viewBox="0 0 130 85" fill="none">
  <path d="M12.8597 12.5827L12.8592 12.5825L12.8502 12.58C12.8414 12.5775 12.8272 12.5736 12.8078 12.5685C12.7691 12.5584 12.7098 12.5436 12.6325 12.5264C12.4776 12.492 12.2514 12.4484 11.9733 12.4134C11.4147 12.3432 10.6597 12.3097 9.85894 12.4489C9.06024 12.5877 8.22637 12.8962 7.49078 13.5025C6.75819 14.1063 6.09555 15.028 5.66995 16.4391C5.59021 16.7035 5.31125 16.8532 5.04687 16.7734C4.78249 16.6937 4.63281 16.4147 4.71255 16.1504C5.13813 14.7393 5.0956 13.6049 4.81903 12.6967C4.54134 11.7848 4.0171 11.0667 3.42834 10.5095C2.83804 9.95072 2.19044 9.56116 1.68619 9.31081C1.43514 9.18616 1.22251 9.09744 1.07449 9.04048C1.00056 9.01203 0.942991 8.99159 0.905084 8.97862C0.886138 8.97214 0.872128 8.96754 0.863468 8.96474L0.854553 8.9619L0.853992 8.96172C0.853859 8.96168 0.853727 8.96164 0.853594 8.9616M12.8597 12.5827L2.70872 8.72936C2.50354 8.60762 2.30852 8.50332 2.13089 8.41512C1.84809 8.27472 1.60646 8.17371 1.43366 8.10721C1.34719 8.07393 1.27772 8.0492 1.22869 8.03243C1.20417 8.02404 1.18473 8.01764 1.17082 8.01314L1.15412 8.00782L1.14897 8.00622L1.14722 8.00567L1.14654 8.00547C1.14626 8.00538 1.14601 8.0053 1 8.48351M12.8597 12.5827C12.86 12.5828 12.8602 12.5828 12.8605 12.5829C13.1243 12.6611 13.4017 12.5114 13.4812 12.2479C13.5607 11.9843 13.4121 11.706 13.1489 11.6254M12.8597 12.5827L13.1489 11.6254M0.853594 8.9616C0.853782 8.96165 0.853992 8.96172 1 8.48351M0.853594 8.9616C0.590373 8.88099 0.441794 8.60274 0.521298 8.33913C0.600769 8.07563 0.878218 7.92595 1.14201 8.0041C1.14226 8.00417 1.1425 8.00425 1.14274 8.00432L1 8.48351M0.853594 8.9616L1 8.48351M1 8.48351C1.14274 8.00432 1.14253 8.00426 1.14234 8.0042L1.14331 8.00448L1.15231 8.00704C1.16107 8.00949 1.17529 8.0134 1.19466 8.01848C1.23342 8.02864 1.29269 8.04344 1.37002 8.06061C1.52485 8.09498 1.75108 8.13862 2.02919 8.17357C2.58777 8.24377 3.34278 8.27724 4.14357 8.13805C4.94228 7.99923 5.77616 7.69072 6.51174 7.08443C7.24433 6.48061 7.90696 5.55894 8.33254 4.14786M1 8.48351C0.857257 8.9627 0.857514 8.96278 0.857793 8.96286L0.858468 8.96306L0.860233 8.96358L0.865413 8.96509L0.882265 8.96988C0.896346 8.97383 0.91608 8.97924 0.94115 8.98581C0.991277 8.99895 1.06283 9.01676 1.15329 9.03684C1.33404 9.07697 1.59123 9.1264 1.9045 9.16577C2.10127 9.1905 2.32143 9.21141 2.55971 9.22342L8.33254 4.14786M9.28994 4.43661C8.86436 5.84769 8.90689 6.98204 9.18345 7.89023C9.46115 8.80213 9.98539 9.52025 10.5742 10.0775C11.1644 10.6363 11.8121 11.0258 12.3163 11.2762C12.5673 11.4008 12.78 11.4896 12.928 11.5465C13.0019 11.575 13.0595 11.5954 13.0974 11.6084C13.1164 11.6149 13.1304 11.6195 13.139 11.6223L13.1479 11.6251L13.1485 11.6253C13.1486 11.6253 13.1488 11.6254 13.1489 11.6254M9.28994 4.43661L13.0025 12.1035C13.1485 11.6253 13.1487 11.6254 13.1489 11.6254M9.28994 4.43661C9.36968 4.17223 9.22 3.89327 8.95562 3.81353M9.28994 4.43661L8.95562 3.81353M8.33254 4.14786C8.41228 3.88348 8.69124 3.7338 8.95562 3.81353M8.33254 4.14786L8.95562 3.81353" stroke="white" stroke-opacity="0.1" stroke-linecap="round" stroke-linejoin="round"/>
  <path d="M128.86 69.5827L128.859 69.5825L128.85 69.58C128.841 69.5775 128.827 69.5736 128.808 69.5685C128.769 69.5584 128.71 69.5436 128.632 69.5264C128.478 69.492 128.251 69.4484 127.973 69.4134C127.415 69.3432 126.66 69.3097 125.859 69.4489C125.06 69.5877 124.226 69.8962 123.491 70.5025C122.758 71.1063 122.096 72.028 121.67 73.4391C121.59 73.7035 121.311 73.8532 121.047 73.7734C120.782 73.6937 120.633 73.4147 120.713 73.1504C121.138 71.7393 121.096 70.6049 120.819 69.6967C120.541 68.7848 120.017 68.0667 119.428 67.5095C118.838 66.9507 118.19 66.5612 117.686 66.3108C117.435 66.1862 117.223 66.0974 117.074 66.0405C117.001 66.012 116.943 65.9916 116.905 65.9786C116.886 65.9721 116.872 65.9675 116.863 65.9647L116.855 65.9619L116.854 65.9617C116.854 65.9617 116.854 65.9616 116.854 65.9616M128.86 69.5827L118.709 65.7294C118.504 65.6076 118.309 65.5033 118.131 65.4151C117.848 65.2747 117.606 65.1737 117.434 65.1072C117.347 65.0739 117.278 65.0492 117.229 65.0324C117.204 65.024 117.185 65.0176 117.171 65.0131L117.154 65.0078L117.149 65.0062L117.147 65.0057L117.147 65.0055C117.146 65.0054 117.146 65.0053 117 65.4835M128.86 69.5827C128.86 69.5828 128.86 69.5828 128.86 69.5829C129.124 69.6611 129.402 69.5114 129.481 69.2479C129.561 68.9843 129.412 68.706 129.149 68.6254M128.86 69.5827L129.149 68.6254M116.854 65.9616C116.854 65.9617 116.854 65.9617 117 65.4835M116.854 65.9616C116.59 65.881 116.442 65.6027 116.521 65.3391C116.601 65.0756 116.878 64.926 117.142 65.0041C117.142 65.0042 117.142 65.0042 117.143 65.0043L117 65.4835M116.854 65.9616L117 65.4835M117 65.4835C117.143 65.0043 117.143 65.0043 117.142 65.0042L117.143 65.0045L117.152 65.007C117.161 65.0095 117.175 65.0134 117.195 65.0185C117.233 65.0286 117.293 65.0434 117.37 65.0606C117.525 65.095 117.751 65.1386 118.029 65.1736C118.588 65.2438 119.343 65.2772 120.144 65.1381C120.942 64.9992 121.776 64.6907 122.512 64.0844C123.244 63.4806 123.907 62.5589 124.333 61.1479M117 65.4835C116.857 65.9627 116.858 65.9628 116.858 65.9629L116.858 65.9631L116.86 65.9636L116.865 65.9651L116.882 65.9699C116.896 65.9738 116.916 65.9792 116.941 65.9858C116.991 65.999 117.063 66.0168 117.153 66.0368C117.334 66.077 117.591 66.1264 117.905 66.1658C118.101 66.1905 118.321 66.2114 118.56 66.2234L124.333 61.1479M125.29 61.4366C124.864 62.8477 124.907 63.982 125.183 64.8902C125.461 65.8021 125.985 66.5203 126.574 67.0775C127.164 67.6363 127.812 68.0258 128.316 68.2762C128.567 68.4008 128.78 68.4896 128.928 68.5465C129.002 68.575 129.059 68.5954 129.097 68.6084C129.116 68.6149 129.13 68.6195 129.139 68.6223L129.148 68.6251L129.148 68.6253C129.149 68.6253 129.149 68.6254 129.149 68.6254M125.29 61.4366L129.002 69.1035C129.148 68.6253 129.149 68.6254 129.149 68.6254M125.29 61.4366C125.37 61.1722 125.22 60.8933 124.956 60.8135M125.29 61.4366L124.956 60.8135M124.333 61.1479C124.412 60.8835 124.691 60.7338 124.956 60.8135M124.333 61.1479L124.956 60.8135" stroke="white" stroke-opacity="0.1" stroke-linecap="round" stroke-linejoin="round"/>
  <rect x="33.3496" y="0.5" width="66.5709" height="77.9585" rx="5.91989" fill="#202020" stroke="#3A3A3A" stroke-linecap="round" stroke-linejoin="round"/>
  <path d="M49.7979 32L58.0828 40.3365" stroke="#474747" stroke-width="2" stroke-linecap="round" stroke-linejoin="round"/>
  <path d="M58.1101 32.0259L49.7734 40.311" stroke="#474747" stroke-width="2" stroke-linecap="round" stroke-linejoin="round"/>
  <path d="M75.1855 32.0789L83.4706 40.4153" stroke="#474747" stroke-width="2" stroke-linecap="round" stroke-linejoin="round"/>
  <path d="M83.4967 32.105L75.1602 40.3901" stroke="#474747" stroke-width="2" stroke-linecap="round" stroke-linejoin="round"/>
  <path d="M54.9316 52.8711L76.48 52.9377" stroke="#474747" stroke-width="2" stroke-linecap="round" stroke-linejoin="round"/>
  <path d="M34.2803 84.3528C40.7864 84.3528 46.0606 79.0786 46.0606 72.5725C46.0606 66.0664 40.7864 60.7922 34.2803 60.7922C27.7742 60.7922 22.5 66.0664 22.5 72.5725C22.5 79.0786 27.7742 84.3528 34.2803 84.3528Z" fill="#202020" stroke="#3A3A3A" stroke-linecap="round" stroke-linejoin="round"/>
  <path fill-rule="evenodd" clip-rule="evenodd" d="M38.3871 73.3729C38.0724 73.8616 37.6533 74.3427 37.1328 74.8239C36.3036 75.5532 35.4185 76.2159 34.485 76.803L34.2822 76.9301L34.0795 76.806C33.1384 76.2265 32.2487 75.5623 31.4165 74.8148C30.4996 73.9433 29.8656 73.0219 29.5918 72.0671C30.5798 71.3288 31.9067 71.0276 33.0975 71.3681C33.8964 71.5966 34.5999 72.0686 35.3096 72.4998C36.0207 72.9326 36.7772 73.3396 37.6049 73.4183C37.8636 73.4425 38.1299 73.4273 38.3871 73.3729Z" fill="#777777" stroke="#777777" stroke-linecap="round" stroke-linejoin="round"/>
  <path fill-rule="evenodd" clip-rule="evenodd" d="M39.1229 71.0034C39.1229 71.8401 38.8778 72.6163 38.3876 73.3728C38.1304 73.4273 37.8641 73.4424 37.6053 73.4182C36.7777 73.3395 36.0212 72.9325 35.31 72.4998C34.6004 72.0686 33.8208 72.2956 33.0219 72.067C31.8312 71.7266 30.5803 71.3287 29.5923 72.067C29.4909 71.716 29.4395 71.3605 29.4395 71.0019C29.4425 69.7203 30.3049 68.6037 31.5335 68.2981C32.5578 68.0423 33.617 68.407 34.2812 69.1953C34.7956 68.581 35.5567 68.2148 36.3722 68.2148H36.3767C37.1045 68.2148 37.802 68.5084 38.3165 69.0304C38.8339 69.5539 39.1229 70.2635 39.1229 71.0034Z" stroke="#777777" stroke-linecap="round" stroke-linejoin="round"/>
  <path d="M101.722 32.237C107.92 32.237 112.944 27.2126 112.944 21.0148C112.944 14.817 107.92 9.79272 101.722 9.79272C95.5243 9.79272 90.5 14.817 90.5 21.0148C90.5 27.2126 95.5243 32.237 101.722 32.237Z" fill="#202020" stroke="#3A3A3A" stroke-linecap="round" stroke-linejoin="round"/>
  <path d="M101.722 22.6738C103.417 22.6738 104.79 21.3002 104.79 19.6058C104.79 17.9114 103.417 16.5378 101.722 16.5378C100.028 16.5378 98.6543 17.9114 98.6543 19.6058C98.6543 21.3002 100.028 22.6738 101.722 22.6738Z" fill="#777777" stroke="#777777" stroke-linecap="round" stroke-linejoin="round"/>
  <mask id="mask0_4449_6328" style="mask-type:alpha" maskUnits="userSpaceOnUse" x="90" y="9" width="24" height="24">
    <path d="M101.722 32.2365C107.92 32.2365 112.944 27.2122 112.944 21.0144C112.944 14.8165 107.92 9.79224 101.722 9.79224C95.5243 9.79224 90.5 14.8165 90.5 21.0144C90.5 27.2122 95.5243 32.2365 101.722 32.2365Z" fill="#202020" stroke="#3A3A3A" stroke-linecap="round" stroke-linejoin="round"/>
  </mask>
  <g mask="url(#mask0_4449_6328)">
    <path d="M101.722 37.3716C105.78 37.3716 109.071 34.0814 109.071 30.0228C109.071 25.9642 105.78 22.6741 101.722 22.6741C97.6632 22.6741 94.373 25.9642 94.373 30.0228C94.373 34.0814 97.6632 37.3716 101.722 37.3716Z" fill="#777777" stroke="#777777" stroke-linecap="round" stroke-linejoin="round"/>
  </g>
</svg>